<svg xmlns="http://www.w3.org/2000/svg" width="600" height="172" viewBox="0 0 600 172" role="img" aria-labelledby="title desc"><title id="title">Interfaces that move.</title><desc id="desc">WEB · TOOLS · BOTS · AUTOMATION. Interfaces that move.</desc><defs><linearGradient id="fb" x1="0" y1="0" x2="1" y2="0"><stop offset="0" stop-color="#0D0A26"/><stop offset="0.5" stop-color="#170F45"/><stop offset="1" stop-color="#0D0A26"/></linearGradient><linearGradient id="hg" x1="0" y1="0" x2="1" y2="0"><stop offset="0" stop-color="#8B5CF6"/><stop offset="0.5" stop-color="#F472B6"/><stop offset="1" stop-color="#FBBF24"/></linearGradient><linearGradient id="sh" x1="0" y1="0" x2="1" y2="0"><stop offset="0" stop-color="#fff" stop-opacity="0"/><stop offset="0.5" stop-color="#fff" stop-opacity="0.55"/><stop offset="1" stop-color="#fff" stop-opacity="0"/></linearGradient></defs><style>text{font-family:'Segoe UI','Helvetica Neue',Helvetica,Arial,sans-serif}.mono{font-family:ui-monospace,'SF Mono','Cascadia Mono',Menlo,Consolas,monospace}.live{display:none}@media (prefers-reduced-motion:no-preference){.live{display:inline}.still{display:none}.shn{animation:shn 5.6s ease-in-out infinite}@keyframes shn{0%{transform:translateX(-80px);opacity:0}4%{opacity:1}25%{transform:translateX(var(--d));opacity:0}100%{opacity:0}}}</style><rect width="600" height="172" rx="26" fill="url(#fb)"/><clipPath id="c0"><rect x="38" y="26" width="87" height="42" rx="8"/></clipPath><rect x="38" y="26" width="87" height="42" rx="8" fill="#8B5CF6" fill-opacity=".9"/><g clip-path="url(#c0)" class="live"><rect class="shn" style="--d:167px;animation-delay:0.0s" x="38" y="26" width="60" height="42" fill="url(#sh)" transform="skewX(-18)"/></g><text x="81.4284" y="54" font-size="17" fill="#FFFFFF" font-weight="800" text-anchor="middle" letter-spacing="2">WEB</text><clipPath id="c1"><rect x="139" y="26" width="111" height="42" rx="8"/></clipPath><rect x="139" y="26" width="111" height="42" rx="8" fill="#F472B6" fill-opacity=".9"/><g clip-path="url(#c1)" class="live"><rect class="shn" style="--d:191px;animation-delay:1.4s" x="139" y="26" width="60" height="42" fill="url(#sh)" transform="skewX(-18)"/></g><text x="194.605" y="54" font-size="17" fill="#0B0B14" font-weight="800" text-anchor="middle" letter-spacing="2">TOOLS</text><clipPath id="c2"><rect x="264" y="26" width="97" height="42" rx="8"/></clipPath><rect x="264" y="26" width="97" height="42" rx="8" fill="#22D3EE" fill-opacity=".9"/><g clip-path="url(#c2)" class="live"><rect class="shn" style="--d:177px;animation-delay:2.8s" x="264" y="26" width="60" height="42" fill="url(#sh)" transform="skewX(-18)"/></g><text x="312.746" y="54" font-size="17" fill="#0B0B14" font-weight="800" text-anchor="middle" letter-spacing="2">BOTS</text><clipPath id="c3"><rect x="375" y="26" width="187" height="42" rx="8"/></clipPath><rect x="375" y="26" width="187" height="42" rx="8" fill="#34D399" fill-opacity=".9"/><g clip-path="url(#c3)" class="live"><rect class="shn" style="--d:267px;animation-delay:4.2s" x="375" y="26" width="60" height="42" fill="url(#sh)" transform="skewX(-18)"/></g><text x="468.684" y="54" font-size="17" fill="#0B0B14" font-weight="800" text-anchor="middle" letter-spacing="2">AUTOMATION</text><path d="M108.8 91H114.6V112H108.8ZM117.4 96H123.1L123.7 99.3Q123.8 99.2 123.8 99.1Q124.9 97.3 126.5 96.4Q128.1 95.5 130.1 95.5Q132.4 95.5 134 96.5Q135.6 97.4 136.5 99.1Q137.3 100.7 137.3 103V112H131.6V103.9Q131.6 102.1 130.7 101.1Q129.8 100.2 128.1 100.2Q126.9 100.2 126 100.7Q125.1 101.2 124.7 102.1Q124.2 103 124.2 104.3V112H118.5V101.5ZM138.8 100.2V97.7L142.1 96.4L144.6 91.7H147.8V96H154.5V100.2H147.8V104.9Q147.8 106.7 148.5 107.4Q149.2 108.1 151.1 108.1Q152.2 108.1 153.1 107.9Q154.1 107.7 154.8 107.3V111.6Q154 111.9 152.6 112.2Q151.2 112.4 149.8 112.4Q147.1 112.4 145.4 111.6Q143.7 110.8 142.9 109.3Q142.1 107.8 142.1 105.7V100.2ZM166.5 112.4Q163.6 112.4 161.3 111.4Q159 110.3 157.7 108.4Q156.4 106.5 156.4 103.9Q156.4 101.4 157.7 99.6Q158.9 97.7 161.1 96.6Q163.3 95.5 166.1 95.5Q169 95.5 171 96.8Q173 98 174.1 100.3Q175.2 102.6 175.2 105.6H162.6Q162.7 105.9 162.9 106.1Q163.5 107.1 164.9 107.7Q166.2 108.2 168.1 108.2Q169.9 108.2 171.6 107.8Q173.4 107.3 174.8 106.5V110.1Q173.2 111.2 171.1 111.8Q168.9 112.4 166.5 112.4ZM162.4 102.2H169.9Q169.8 101.7 169.5 101.3Q169 100.5 168.2 100Q167.4 99.6 166.2 99.6Q165 99.6 164.1 100.1Q163.2 100.6 162.7 101.4Q162.5 101.8 162.4 102.2ZM176.9 96H182.8L183.5 100.3Q183.9 99.1 184.5 98.1Q185.3 96.9 186.4 96.2Q187.6 95.5 189.2 95.5Q189.7 95.5 190.2 95.6Q190.7 95.6 191.2 95.8V100.6Q190.4 100.5 189.6 100.4Q188.9 100.3 188.3 100.3Q187 100.3 186 100.8Q185 101.3 184.3 102.4Q183.7 103.5 183.7 105.4V112H178V101.4ZM204.5 94.2Q202.7 94.2 201.9 94.9Q201.2 95.6 201.2 97V97.3H207.7V101.6H201.2V112H195.5V101.6H192.2V97.3H195.5V97.3Q195.5 95 196.4 93.3Q197.4 91.7 199.2 90.8Q201.1 90 203.8 90Q205.1 90 206 90.2Q207 90.3 208.1 90.6V94.8Q207.2 94.5 206.4 94.4Q205.5 94.2 204.5 94.2ZM224.1 112 223.7 108.8Q222.6 110.4 221 111.4Q219.2 112.4 216.9 112.4Q214.6 112.4 212.8 111.4Q211 110.3 210 108.4Q209 106.5 209 104Q209 101.5 210 99.6Q211 97.7 212.8 96.6Q214.6 95.5 216.9 95.5Q219.2 95.5 221 96.6Q222.6 97.6 223.7 99.2L224.1 96H230L229 104L230 112ZM214.8 104Q214.8 105.2 215.3 106.1Q215.8 107 216.6 107.6Q217.5 108.1 218.6 108.1Q219.8 108.1 220.8 107.6Q221.9 107 222.7 106.1Q223.4 105.2 223.8 104Q223.4 102.8 222.7 101.9Q221.9 101 220.8 100.4Q219.8 99.9 218.6 99.9Q217.5 99.9 216.6 100.4Q215.8 101 215.3 101.9Q214.8 102.8 214.8 104ZM251.9 105.3Q251.6 107.4 250.3 109Q248.9 110.7 246.8 111.6Q244.7 112.4 242 112.4Q239.1 112.4 236.8 111.4Q234.6 110.3 233.3 108.4Q232.1 106.5 232.1 104Q232.1 101.5 233.3 99.6Q234.6 97.7 236.8 96.6Q239.1 95.5 242 95.5Q244.7 95.5 246.8 96.4Q248.9 97.4 250.3 99Q251.6 100.6 251.9 102.8H246.2Q245.9 101.3 244.7 100.6Q243.6 99.8 242 99.8Q240.7 99.8 239.8 100.3Q238.9 100.8 238.3 101.7Q237.8 102.6 237.8 104Q237.8 105.4 238.3 106.3Q238.9 107.2 239.8 107.7Q240.7 108.2 242 108.2Q243.6 108.2 244.8 107.4Q245.9 106.6 246.2 105.3ZM263.5 112.4Q260.6 112.4 258.3 111.4Q256 110.3 254.7 108.4Q253.4 106.5 253.4 103.9Q253.4 101.4 254.7 99.6Q255.9 97.7 258.1 96.6Q260.3 95.5 263.1 95.5Q266 95.5 268 96.8Q270 98 271.1 100.3Q272.2 102.6 272.2 105.6H259.6Q259.7 105.9 259.9 106.1Q260.5 107.1 261.9 107.7Q263.2 108.2 265.1 108.2Q266.9 108.2 268.6 107.8Q270.4 107.3 271.8 106.5V110.1Q270.2 111.2 268.1 111.8Q265.9 112.4 263.5 112.4ZM259.4 102.2H266.9Q266.8 101.7 266.5 101.3Q266 100.5 265.2 100Q264.4 99.6 263.2 99.6Q262 99.6 261.1 100.1Q260.2 100.6 259.7 101.4Q259.5 101.8 259.4 102.2ZM293.2 106.8Q293.2 108.6 292.1 109.9Q291 111.2 288.9 111.8Q286.8 112.4 283.9 112.4Q280.9 112.4 278.7 111.7Q276.4 111 275.2 109.7Q273.9 108.4 273.8 106.6H279.6Q279.8 107.3 280.4 107.7Q280.9 108.2 281.9 108.4Q282.9 108.7 284.2 108.7Q285.9 108.7 286.8 108.3Q287.6 108 287.6 107.3Q287.6 106.8 287 106.5Q286.3 106.3 284.7 106.1L281.8 105.9Q279 105.7 277.3 105Q275.7 104.4 275 103.3Q274.2 102.3 274.2 100.9Q274.2 99.1 275.4 97.9Q276.5 96.7 278.5 96.1Q280.6 95.5 283.3 95.5Q286 95.5 288.1 96.2Q290.2 96.9 291.4 98.2Q292.7 99.4 292.9 101.1H287.1Q286.9 100.6 286.5 100.1Q286 99.7 285.1 99.4Q284.3 99.1 283 99.1Q281.5 99.1 280.7 99.5Q279.9 99.8 279.9 100.4Q279.9 100.9 280.3 101.2Q280.8 101.5 282.2 101.6L285.9 101.9Q288.7 102 290.3 102.7Q291.9 103.3 292.5 104.3Q293.2 105.4 293.2 106.8ZM301.2 100.2V97.7L304.4 96.4L306.9 91.7H310.1V96H316.8V100.2H310.1V104.9Q310.1 106.7 310.8 107.4Q311.5 108.1 313.4 108.1Q314.5 108.1 315.5 107.9Q316.4 107.7 317.1 107.3V111.6Q316.3 111.9 314.9 112.2Q313.5 112.4 312.1 112.4Q309.4 112.4 307.7 111.6Q306 110.8 305.2 109.3Q304.4 107.8 304.4 105.7V100.2ZM319.4 90.4H325.2V98.5Q326.2 97.2 327.5 96.4Q329.1 95.5 331 95.5Q333.4 95.5 335 96.5Q336.6 97.4 337.5 99.1Q338.3 100.7 338.3 103V112H332.6V103.9Q332.6 102.1 331.7 101.1Q330.8 100.2 329.1 100.2Q327.9 100.2 327 100.7Q326.1 101.2 325.6 102.1Q325.2 103 325.2 104.3V112H319.4ZM355.7 112 355.3 108.8Q354.2 110.4 352.6 111.4Q350.8 112.4 348.5 112.4Q346.2 112.4 344.4 111.4Q342.6 110.3 341.6 108.4Q340.6 106.5 340.6 104Q340.6 101.5 341.6 99.6Q342.6 97.7 344.4 96.6Q346.2 95.5 348.5 95.5Q350.8 95.5 352.6 96.6Q354.2 97.6 355.3 99.2L355.7 96H361.6L360.6 104L361.6 112ZM346.4 104Q346.4 105.2 346.9 106.1Q347.4 107 348.2 107.6Q349.1 108.1 350.2 108.1Q351.4 108.1 352.4 107.6Q353.5 107 354.3 106.1Q355 105.2 355.4 104Q355 102.8 354.3 101.9Q353.5 101 352.4 100.4Q351.4 99.9 350.2 99.9Q349.1 99.9 348.2 100.4Q347.4 101 346.9 101.9Q346.4 102.8 346.4 104ZM363 100.2V97.7L366.2 96.4L368.7 91.7H371.9V96H378.7V100.2H371.9V104.9Q371.9 106.7 372.6 107.4Q373.3 108.1 375.2 108.1Q376.4 108.1 377.3 107.9Q378.2 107.7 378.9 107.3V111.6Q378.1 111.9 376.7 112.2Q375.4 112.4 373.9 112.4Q371.2 112.4 369.6 111.6Q367.9 110.8 367 109.3Q366.2 107.8 366.2 105.7V100.2ZM387.5 96H393.2L393.7 99.3Q393.8 99.2 393.8 99.1Q394.9 97.3 396.4 96.4Q397.9 95.5 399.8 95.5Q402 95.5 403.5 96.5Q405 97.4 405.9 99.1Q406 99.3 406.1 99.5Q406.1 99.3 406.3 99.1Q407.3 97.3 408.8 96.4Q410.4 95.5 412.2 95.5Q414.4 95.5 415.9 96.5Q417.5 97.4 418.3 99.1Q419.1 100.7 419.1 103V112H413.4V103.9Q413.4 102.1 412.6 101.1Q411.8 100.2 410.2 100.2Q409.1 100.2 408.3 100.7Q407.5 101.2 407.1 102.1Q406.7 103 406.7 104.3V112H401V103.9Q401 102.1 400.1 101.1Q399.3 100.2 397.8 100.2Q396.7 100.2 395.9 100.7Q395.1 101.2 394.7 102.1Q394.2 103 394.2 104.3V112H388.5V101.5ZM431.6 112.4Q428.5 112.4 426.2 111.4Q423.9 110.3 422.6 108.4Q421.3 106.5 421.3 104Q421.3 101.5 422.6 99.6Q423.9 97.7 426.2 96.6Q428.5 95.5 431.6 95.5Q434.6 95.5 436.9 96.6Q439.2 97.7 440.5 99.6Q441.8 101.5 441.8 104Q441.8 106.5 440.5 108.4Q439.2 110.3 436.9 111.4Q434.6 112.4 431.6 112.4ZM431.6 108.2Q433 108.2 434 107.7Q434.9 107.2 435.5 106.3Q436 105.3 436 104Q436 102.7 435.5 101.7Q434.9 100.8 434 100.3Q433 99.8 431.6 99.8Q430.2 99.8 429.2 100.3Q428.1 100.8 427.6 101.7Q427.1 102.7 427.1 104Q427.1 105.3 427.6 106.3Q428.1 107.2 429.2 107.7Q430.2 108.2 431.6 108.2ZM453.5 106.9 458 96H464.2L456.7 112H450.2L442.7 96H449ZM475.1 112.4Q472.2 112.4 469.9 111.4Q467.7 110.3 466.3 108.4Q465 106.5 465 103.9Q465 101.4 466.3 99.6Q467.5 97.7 469.7 96.6Q471.9 95.5 474.7 95.5Q477.6 95.5 479.6 96.8Q481.7 98 482.8 100.3Q483.9 102.6 483.9 105.6H471.2Q471.3 105.9 471.5 106.1Q472.2 107.1 473.5 107.7Q474.8 108.2 476.8 108.2Q478.5 108.2 480.3 107.8Q482 107.3 483.4 106.5V110.1Q481.8 111.2 479.7 111.8Q477.6 112.4 475.1 112.4ZM471 102.2H478.5Q478.4 101.7 478.2 101.3Q477.6 100.5 476.8 100Q476 99.6 474.8 99.6Q473.6 99.6 472.7 100.1Q471.8 100.6 471.3 101.4Q471.1 101.8 471 102.2ZM488.9 112.3Q488 112.3 487.3 111.9Q486.6 111.4 486.1 110.7Q485.7 110 485.7 109.1Q485.7 108.2 486.1 107.4Q486.6 106.7 487.3 106.3Q488 105.8 488.9 105.8Q489.9 105.8 490.6 106.3Q491.3 106.7 491.7 107.4Q492.2 108.2 492.2 109.1Q492.2 110 491.7 110.7Q491.3 111.4 490.6 111.9Q489.9 112.3 488.9 112.3Z" fill="url(#hg)" /></svg>
