<svg xmlns="http://www.w3.org/2000/svg" width="1200" height="172" viewBox="0 0 1200 172" role="img" aria-labelledby="title desc"><title id="title">Interfaces that move.</title><desc id="desc">WEB · TOOLS · BOTS · AUTOMATION. Interfaces that move.</desc><defs><linearGradient id="fb" x1="0" y1="0" x2="1" y2="0"><stop offset="0" stop-color="#0D0A26"/><stop offset="0.5" stop-color="#170F45"/><stop offset="1" stop-color="#0D0A26"/></linearGradient><linearGradient id="hg" x1="0" y1="0" x2="1" y2="0"><stop offset="0" stop-color="#8B5CF6"/><stop offset="0.5" stop-color="#F472B6"/><stop offset="1" stop-color="#FBBF24"/></linearGradient><linearGradient id="sh" x1="0" y1="0" x2="1" y2="0"><stop offset="0" stop-color="#fff" stop-opacity="0"/><stop offset="0.5" stop-color="#fff" stop-opacity="0.55"/><stop offset="1" stop-color="#fff" stop-opacity="0"/></linearGradient></defs><style>text{font-family:'Segoe UI','Helvetica Neue',Helvetica,Arial,sans-serif}.mono{font-family:ui-monospace,'SF Mono','Cascadia Mono',Menlo,Consolas,monospace}.live{display:none}@media (prefers-reduced-motion:no-preference){.live{display:inline}.still{display:none}.shn{animation:shn 5.6s ease-in-out infinite}@keyframes shn{0%{transform:translateX(-80px);opacity:0}4%{opacity:1}25%{transform:translateX(var(--d));opacity:0}100%{opacity:0}}}</style><rect width="1200" height="172" rx="26" fill="url(#fb)"/><clipPath id="c0"><rect x="338" y="26" width="87" height="42" rx="8"/></clipPath><rect x="338" y="26" width="87" height="42" rx="8" fill="#8B5CF6" fill-opacity=".9"/><g clip-path="url(#c0)" class="live"><rect class="shn" style="--d:167px;animation-delay:0.0s" x="338" y="26" width="60" height="42" fill="url(#sh)" transform="skewX(-18)"/></g><text x="381.428" y="54" font-size="17" fill="#FFFFFF" font-weight="800" text-anchor="middle" letter-spacing="2">WEB</text><clipPath id="c1"><rect x="439" y="26" width="111" height="42" rx="8"/></clipPath><rect x="439" y="26" width="111" height="42" rx="8" fill="#F472B6" fill-opacity=".9"/><g clip-path="url(#c1)" class="live"><rect class="shn" style="--d:191px;animation-delay:1.4s" x="439" y="26" width="60" height="42" fill="url(#sh)" transform="skewX(-18)"/></g><text x="494.605" y="54" font-size="17" fill="#0B0B14" font-weight="800" text-anchor="middle" letter-spacing="2">TOOLS</text><clipPath id="c2"><rect x="564" y="26" width="97" height="42" rx="8"/></clipPath><rect x="564" y="26" width="97" height="42" rx="8" fill="#22D3EE" fill-opacity=".9"/><g clip-path="url(#c2)" class="live"><rect class="shn" style="--d:177px;animation-delay:2.8s" x="564" y="26" width="60" height="42" fill="url(#sh)" transform="skewX(-18)"/></g><text x="612.746" y="54" font-size="17" fill="#0B0B14" font-weight="800" text-anchor="middle" letter-spacing="2">BOTS</text><clipPath id="c3"><rect x="675" y="26" width="187" height="42" rx="8"/></clipPath><rect x="675" y="26" width="187" height="42" rx="8" fill="#34D399" fill-opacity=".9"/><g clip-path="url(#c3)" class="live"><rect class="shn" style="--d:267px;animation-delay:4.2s" x="675" y="26" width="60" height="42" fill="url(#sh)" transform="skewX(-18)"/></g><text x="768.684" y="54" font-size="17" fill="#0B0B14" font-weight="800" text-anchor="middle" letter-spacing="2">AUTOMATION</text><path d="M395.2 89.5H401.4V112H395.2ZM404.4 94.9H410.5L411.1 98.4Q411.2 98.3 411.3 98.1Q412.4 96.3 414.1 95.3Q415.8 94.4 417.9 94.4Q420.4 94.4 422.1 95.3Q423.9 96.3 424.8 98.1Q425.7 99.9 425.7 102.4V112H419.6V103.3Q419.6 101.4 418.6 100.4Q417.6 99.3 415.8 99.3Q414.5 99.3 413.6 99.9Q412.6 100.4 412.1 101.4Q411.6 102.4 411.6 103.8V112H405.5V100.8ZM427.3 99.4V96.7L430.8 95.3L433.5 90.2H436.9V94.9H444.1V99.4H436.9V104.4Q436.9 106.3 437.7 107Q438.4 107.8 440.4 107.8Q441.7 107.8 442.7 107.6Q443.6 107.3 444.4 107V111.6Q443.5 111.9 442.1 112.2Q440.6 112.5 439 112.5Q436.2 112.5 434.4 111.6Q432.6 110.7 431.7 109.1Q430.8 107.5 430.8 105.3V99.4ZM457 112.5Q453.9 112.5 451.4 111.3Q449 110.2 447.6 108.1Q446.1 106.1 446.1 103.4Q446.1 100.7 447.5 98.7Q448.8 96.6 451.2 95.5Q453.6 94.4 456.5 94.4Q459.6 94.4 461.8 95.7Q464 97 465.2 99.5Q466.3 101.9 466.3 105.2H452.8Q452.9 105.4 453.1 105.6Q453.8 106.8 455.2 107.4Q456.6 108 458.7 108Q460.6 108 462.5 107.5Q464.4 107 465.9 106.1V110Q464.1 111.2 461.9 111.8Q459.6 112.5 457 112.5ZM452.5 101.5H460.6Q460.5 101 460.2 100.5Q459.7 99.6 458.8 99.2Q457.9 98.7 456.7 98.7Q455.3 98.7 454.4 99.2Q453.4 99.8 452.9 100.7Q452.7 101.1 452.5 101.5ZM468.1 94.9H474.4L475.1 99.4Q475.6 98.1 476.3 97.1Q477.1 95.8 478.3 95.1Q479.5 94.4 481.3 94.4Q481.8 94.4 482.4 94.4Q482.9 94.5 483.4 94.6V99.8Q482.5 99.6 481.7 99.6Q480.9 99.5 480.3 99.5Q479 99.5 477.9 100Q476.7 100.5 476.1 101.7Q475.4 102.9 475.4 105V112H469.3V100.6ZM497.7 93Q495.7 93 494.9 93.7Q494.1 94.4 494.1 96V96.3H501.1V100.8H494.1V112H488V100.8H484.5V96.3H488V96.2Q488 93.8 489 92Q490 90.2 492 89.3Q494 88.4 497 88.4Q498.3 88.4 499.3 88.6Q500.4 88.8 501.5 89.1V93.6Q500.6 93.3 499.7 93.1Q498.7 93 497.7 93ZM518.7 112 518.2 108.5Q517.1 110.3 515.3 111.3Q513.4 112.5 511 112.5Q508.5 112.5 506.6 111.4Q504.6 110.2 503.6 108.2Q502.5 106.1 502.5 103.5Q502.5 100.7 503.6 98.7Q504.6 96.6 506.6 95.5Q508.5 94.4 511 94.4Q513.4 94.4 515.3 95.5Q517.1 96.5 518.3 98.3L518.7 94.9H525L524 103.4L525 112ZM508.7 103.5Q508.7 104.7 509.2 105.7Q509.7 106.7 510.7 107.2Q511.6 107.8 512.8 107.8Q514.1 107.8 515.2 107.2Q516.3 106.7 517.1 105.7Q518 104.7 518.4 103.5Q518 102.2 517.1 101.2Q516.3 100.2 515.2 99.6Q514.1 99 512.8 99Q511.6 99 510.7 99.6Q509.7 100.2 509.2 101.2Q508.7 102.2 508.7 103.5ZM548.4 104.8Q548.2 107.1 546.7 108.8Q545.3 110.6 543 111.5Q540.7 112.5 537.9 112.5Q534.7 112.5 532.3 111.3Q529.9 110.2 528.6 108.2Q527.2 106.1 527.2 103.5Q527.2 100.8 528.6 98.7Q529.9 96.7 532.3 95.5Q534.7 94.4 537.9 94.4Q540.7 94.4 543 95.3Q545.3 96.3 546.7 98Q548.2 99.8 548.4 102.1H542.3Q542 100.6 540.8 99.7Q539.6 98.9 537.9 98.9Q536.5 98.9 535.5 99.4Q534.5 100 533.9 101Q533.4 102 533.4 103.5Q533.4 104.9 533.9 105.9Q534.5 106.9 535.5 107.4Q536.5 108 537.9 108Q539.6 108 540.8 107.1Q542 106.2 542.3 104.8ZM560.9 112.5Q557.8 112.5 555.3 111.3Q552.9 110.2 551.5 108.1Q550.1 106.1 550.1 103.4Q550.1 100.7 551.4 98.7Q552.8 96.6 555.1 95.5Q557.5 94.4 560.4 94.4Q563.5 94.4 565.7 95.7Q567.9 97 569.1 99.5Q570.3 101.9 570.3 105.2H556.7Q556.8 105.4 557 105.6Q557.7 106.8 559.1 107.4Q560.6 108 562.6 108Q564.5 108 566.4 107.5Q568.3 107 569.8 106.1V110Q568 111.2 565.8 111.8Q563.5 112.5 560.9 112.5ZM556.5 101.5H564.6Q564.4 101 564.1 100.5Q563.6 99.6 562.7 99.2Q561.8 98.7 560.6 98.7Q559.2 98.7 558.3 99.2Q557.3 99.8 556.8 100.7Q556.6 101.1 556.5 101.5ZM592.7 106.4Q592.7 108.4 591.5 109.8Q590.3 111.1 588.1 111.8Q585.9 112.5 582.8 112.5Q579.6 112.5 577.1 111.7Q574.7 110.9 573.4 109.5Q572 108.1 571.9 106.2H578.1Q578.4 106.9 579 107.4Q579.6 107.9 580.6 108.2Q581.6 108.4 583 108.4Q584.9 108.4 585.8 108.1Q586.8 107.7 586.8 107Q586.8 106.4 586 106.1Q585.3 105.8 583.6 105.7L580.5 105.5Q577.5 105.2 575.7 104.5Q573.9 103.8 573.2 102.7Q572.4 101.6 572.4 100.2Q572.4 98.2 573.6 96.9Q574.8 95.7 577 95Q579.2 94.4 582.1 94.4Q585 94.4 587.2 95.1Q589.5 95.9 590.8 97.2Q592.2 98.5 592.4 100.3H586.2Q586 99.8 585.5 99.3Q585 98.8 584.1 98.5Q583.2 98.2 581.8 98.2Q580.1 98.2 579.3 98.6Q578.4 99 578.4 99.6Q578.4 100.1 578.9 100.4Q579.5 100.7 580.9 100.8L584.9 101.1Q587.9 101.3 589.6 102Q591.3 102.7 592 103.8Q592.7 104.9 592.7 106.4ZM601.2 99.4V96.7L604.7 95.3L607.4 90.2H610.8V94.9H618V99.4H610.8V104.4Q610.8 106.3 611.6 107Q612.3 107.8 614.3 107.8Q615.6 107.8 616.6 107.6Q617.5 107.3 618.3 107V111.6Q617.4 111.9 616 112.2Q614.5 112.5 612.9 112.5Q610.1 112.5 608.3 111.6Q606.5 110.7 605.6 109.1Q604.7 107.5 604.7 105.3V99.4ZM620.8 88.9H627V97.6Q628 96.1 629.5 95.3Q631.2 94.4 633.3 94.4Q635.7 94.4 637.5 95.3Q639.2 96.3 640.1 98.1Q641.1 99.9 641.1 102.4V112H634.9V103.3Q634.9 101.4 633.9 100.4Q633 99.3 631.1 99.3Q629.9 99.3 628.9 99.9Q628 100.4 627.5 101.4Q627 102.4 627 103.8V112H620.8ZM659.7 112 659.2 108.5Q658.1 110.3 656.3 111.3Q654.4 112.5 652 112.5Q649.5 112.5 647.6 111.4Q645.6 110.2 644.6 108.2Q643.5 106.1 643.5 103.5Q643.5 100.7 644.6 98.7Q645.6 96.6 647.6 95.5Q649.5 94.4 652 94.4Q654.4 94.4 656.3 95.5Q658.1 96.5 659.3 98.3L659.7 94.9H666L665 103.4L666 112ZM649.7 103.5Q649.7 104.7 650.2 105.7Q650.7 106.7 651.7 107.2Q652.6 107.8 653.8 107.8Q655.1 107.8 656.2 107.2Q657.3 106.7 658.1 105.7Q659 104.7 659.4 103.5Q659 102.2 658.1 101.2Q657.3 100.2 656.2 99.6Q655.1 99 653.8 99Q652.6 99 651.7 99.6Q650.7 100.2 650.2 101.2Q649.7 102.2 649.7 103.5ZM667.5 99.4V96.7L671 95.3L673.6 90.2H677.1V94.9H684.3V99.4H677.1V104.4Q677.1 106.3 677.8 107Q678.6 107.8 680.6 107.8Q681.8 107.8 682.8 107.6Q683.8 107.3 684.6 107V111.6Q683.7 111.9 682.2 112.2Q680.7 112.5 679.2 112.5Q676.3 112.5 674.5 111.6Q672.7 110.7 671.8 109.1Q671 107.5 671 105.3V99.4ZM693.7 94.9H699.9L700.4 98.4Q700.5 98.3 700.5 98.1Q701.7 96.3 703.3 95.3Q704.9 94.4 706.9 94.4Q709.2 94.4 710.9 95.3Q712.5 96.3 713.4 98.1Q713.5 98.3 713.6 98.6Q713.7 98.4 713.9 98.1Q714.9 96.3 716.6 95.3Q718.2 94.4 720.2 94.4Q722.5 94.4 724.2 95.3Q725.9 96.3 726.7 98.1Q727.6 99.9 727.6 102.4V112H721.5V103.3Q721.5 101.4 720.6 100.4Q719.7 99.3 718.1 99.3Q716.9 99.3 716.1 99.9Q715.2 100.4 714.8 101.4Q714.3 102.4 714.3 103.8V112H708.2V103.3Q708.2 101.4 707.3 100.4Q706.4 99.3 704.8 99.3Q703.6 99.3 702.8 99.9Q701.9 100.4 701.4 101.4Q701 102.4 701 103.8V112H694.8V100.8ZM741 112.5Q737.7 112.5 735.2 111.4Q732.7 110.2 731.4 108.2Q730 106.1 730 103.5Q730 100.7 731.4 98.7Q732.7 96.6 735.2 95.5Q737.7 94.4 741 94.4Q744.2 94.4 746.7 95.5Q749.2 96.6 750.6 98.7Q751.9 100.7 751.9 103.5Q751.9 106.1 750.6 108.2Q749.2 110.2 746.7 111.4Q744.2 112.5 741 112.5ZM741 108Q742.5 108 743.5 107.4Q744.6 106.9 745.2 105.8Q745.7 104.8 745.7 103.5Q745.7 102 745.2 101Q744.6 100 743.5 99.5Q742.5 98.9 741 98.9Q739.5 98.9 738.4 99.5Q737.3 100 736.7 101Q736.2 102 736.2 103.4Q736.2 104.8 736.7 105.8Q737.3 106.9 738.4 107.4Q739.5 108 741 108ZM764.4 106.5 769.3 94.9H775.9L767.9 112H760.9L752.9 94.9H759.6ZM787.6 112.5Q784.5 112.5 782.1 111.3Q779.6 110.2 778.2 108.1Q776.8 106.1 776.8 103.4Q776.8 100.7 778.2 98.7Q779.5 96.6 781.9 95.5Q784.2 94.4 787.2 94.4Q790.3 94.4 792.5 95.7Q794.6 97 795.8 99.5Q797 101.9 797 105.2H783.5Q783.6 105.4 783.7 105.6Q784.5 106.8 785.9 107.4Q787.3 108 789.4 108Q791.3 108 793.1 107.5Q795 107 796.5 106.1V110Q794.8 111.2 792.5 111.8Q790.2 112.5 787.6 112.5ZM783.2 101.5H791.3Q791.1 101 790.9 100.5Q790.3 99.6 789.5 99.2Q788.6 98.7 787.3 98.7Q786 98.7 785 99.2Q784.1 99.8 783.5 100.7Q783.3 101.1 783.2 101.5ZM802.4 112.3Q801.5 112.3 800.7 111.8Q799.9 111.4 799.4 110.6Q799 109.8 799 108.8Q799 107.9 799.4 107.1Q799.9 106.3 800.7 105.9Q801.5 105.4 802.4 105.4Q803.4 105.4 804.2 105.9Q805 106.3 805.4 107.1Q805.9 107.9 805.9 108.8Q805.9 109.8 805.4 110.6Q805 111.4 804.2 111.8Q803.4 112.3 802.4 112.3Z" fill="url(#hg)" /></svg>
